<svg viewBox="0 0 490.101 490.101" fill="white">
    <path d="M489.957,468.901v-313.7c0-10.6-8.5-20.1-20.1-20.1h-273.7l203.9-96c9.5-5.3,14.8-16.9,9.5-27.5
			c-5.3-9.5-16.9-14.8-27.5-9.5l-282.3,133.1h-79.6c-10.6,0-20.1,8.4-20.1,20.1v314.7c0,10.6,8.5,20.1,20.1,20.1h450.8
			C481.557,490.001,491.057,480.501,489.957,468.901z M450.857,448.801h-409.5v-272.5h409.5V448.801z" />
    <path d="M140.757,401.301c46.6,0,84.7-38,84.7-84.5s-38.1-84.5-84.7-84.5s-84.7,38-84.7,84.5
			C56.157,363.301,94.257,401.301,140.757,401.301z M140.757,273.501c24.3,0,43.4,19,43.4,43.3c0,23.2-19,43.3-43.4,43.3
			c-23.3,0-43.4-19-43.4-43.3C97.357,293.601,116.457,273.501,140.757,273.501z" />
    <path d="M350.257,401.301c46.6,0,84.7-38,84.7-84.5s-38.1-84.5-84.7-84.5s-84.7,38-84.7,84.5
			C265.657,363.301,303.757,401.301,350.257,401.301z M350.257,273.501c24.3,0,44.4,19,43.4,43.3c0,23.2-19,43.3-43.4,43.3
			c-23.3,0-43.4-19-43.4-43.3C306.957,293.601,325.957,273.501,350.257,273.501z" />
</svg>
